<svg width="100" height="29" viewBox="0 0 100 29" fill="none" xmlns="http://www.w3.org/2000/svg">
<path d="M0.504883 0.742435H28.5049V28.7424H0.504883V0.742435Z" fill="#F68633"/>
<path d="M19.1849 4.22564H9.6407L7.19153 16.6489H10.7278L8.49797 28.7409H9.03073L14.8564 12.4092H12.3004L13.2376 8.16953H18.3466C19.0723 8.16953 19.568 8.36672 19.8336 8.76111C20.1261 9.1555 20.1718 9.82596 19.9706 10.7725L19.2748 14.0459C19.0736 14.9925 18.7429 15.6629 18.2828 16.0573C17.8495 16.4517 17.27 16.6489 16.5442 16.6489L15.1828 20.5123C17.3869 20.5123 19.6862 20.0143 21.0342 18.8575C22.3821 17.7006 23.2936 16.0047 23.7687 13.7699L24.3471 11.0486C24.8221 8.8137 24.6316 7.11782 23.7754 5.96095C22.9192 4.80407 21.389 4.22564 19.1849 4.22564Z" fill="#ED6500"/>
<path d="M18.3446 4.22564H8.80046L6.35129 16.6489H9.88756L7.65795 28.7398H8.19091L14.0162 12.4092H11.4601L12.3974 8.16953H17.5063C18.2321 8.16953 18.7278 8.36672 18.9934 8.76111C19.2859 9.1555 19.3315 9.82596 19.1303 10.7725L18.4346 14.0459C18.2334 14.9925 17.9027 15.6629 17.4425 16.0573C17.0093 16.4517 16.4298 16.6489 15.704 16.6489L14.3425 20.5123C16.5467 20.5123 18.8459 20.0143 20.1939 18.8575C21.5419 17.7006 22.4534 16.0047 22.9284 13.7699L23.5069 11.0486C23.9819 8.8137 23.7913 7.11782 22.9352 5.96095C22.079 4.80407 20.5488 4.22564 18.3446 4.22564Z" fill="white"/>
<path d="M36.6592 1.01035H40.5144C41.8154 1.01035 42.7911 1.35938 43.4416 2.05746C44.0921 2.75553 44.4173 3.77884 44.4173 5.12738V6.76944C44.4173 8.11799 44.0921 9.1413 43.4416 9.83937C42.7911 10.5374 41.8154 10.8865 40.5144 10.8865H39.2769V17.6689H36.6592V1.01035ZM40.5144 8.50668C40.9428 8.50668 41.2601 8.3877 41.4664 8.14972C41.6885 7.91174 41.7995 7.50717 41.7995 6.93602V4.9608C41.7995 4.38965 41.6885 3.98508 41.4664 3.74711C41.2601 3.50913 40.9428 3.39014 40.5144 3.39014H39.2769V8.50668H40.5144Z" fill="white"/>
<path d="M45.839 1.01035H52.9784V3.39014H48.4568V7.79275H52.0503V10.1725H48.4568V15.2891H52.9784V17.6689H45.839V1.01035Z" fill="white"/>
<path d="M57.9339 17.9069C56.6647 17.9069 55.7049 17.5499 55.0544 16.8359C54.4039 16.1061 54.0787 15.067 54.0787 13.7184V12.7665H56.5537V13.9088C56.5537 14.9876 57.0058 15.5271 57.9101 15.5271C58.3544 15.5271 58.6875 15.4001 58.9097 15.1463C59.1476 14.8766 59.2666 14.4482 59.2666 13.8612C59.2666 13.1631 59.108 12.5523 58.7907 12.0288C58.4734 11.4894 57.8863 10.8468 57.0296 10.1011C55.9508 9.14923 55.1972 8.2925 54.7688 7.53097C54.3405 6.75357 54.1263 5.88098 54.1263 4.9132C54.1263 3.59639 54.4594 2.58101 55.1258 1.86707C55.7921 1.13727 56.7599 0.772369 58.0291 0.772369C59.2825 0.772369 60.2265 1.13727 60.8611 1.86707C61.5116 2.58101 61.8368 3.61225 61.8368 4.9608V5.65094H59.3618V4.79421C59.3618 4.22306 59.2508 3.81057 59.0286 3.55672C58.8065 3.28701 58.4813 3.15216 58.0529 3.15216C57.1803 3.15216 56.744 3.68365 56.744 4.74662C56.744 5.3495 56.9027 5.91271 57.22 6.43627C57.5532 6.95982 58.1481 7.59443 59.0048 8.3401C60.0995 9.29202 60.8531 10.1567 61.2656 10.9341C61.6781 11.7115 61.8844 12.6237 61.8844 13.6708C61.8844 15.0352 61.5433 16.0823 60.8611 16.8121C60.1947 17.542 59.219 17.9069 57.9339 17.9069Z" fill="white"/>
<path d="M63.3853 1.01035H70.5247V3.39014H66.0031V7.79275H69.5966V10.1725H66.0031V15.2891H70.5247V17.6689H63.3853V1.01035Z" fill="white"/>
<path d="M72.0307 1.01035H75.9097C77.2583 1.01035 78.2419 1.32765 78.8606 1.96226C79.4794 2.58101 79.7888 3.54086 79.7888 4.84181V5.86512C79.7888 7.59443 79.2176 8.68914 78.0753 9.14923V9.19682C78.7099 9.38721 79.1542 9.77591 79.408 10.3629C79.6777 10.9499 79.8126 11.7353 79.8126 12.7189V15.6461C79.8126 16.122 79.8284 16.5107 79.8602 16.8121C79.8919 17.0977 79.9712 17.3833 80.0981 17.6689H77.4328C77.3376 17.3992 77.2741 17.1453 77.2424 16.9073C77.2107 16.6694 77.1948 16.241 77.1948 15.6223V12.5761C77.1948 11.8146 77.0679 11.2831 76.814 10.9817C76.5761 10.6802 76.1556 10.5295 75.5527 10.5295H74.6484V17.6689H72.0307V1.01035ZM75.6003 8.14972C76.1239 8.14972 76.5126 8.01486 76.7664 7.74515C77.0361 7.47544 77.171 7.02328 77.171 6.38867V5.10359C77.171 4.50071 77.0599 4.06441 76.8378 3.7947C76.6316 3.52499 76.2984 3.39014 75.8383 3.39014H74.6484V8.14972H75.6003Z" fill="white"/>
<path d="M83.6516 1.01035H87.1975L89.9105 17.6689H87.2927L86.8168 14.361V14.4086H83.842L83.3661 17.6689H80.9387L83.6516 1.01035ZM86.5074 12.1478L85.3413 3.91369H85.2937L84.1514 12.1478H86.5074Z" fill="white"/>
<path d="M36.6592 28.6459V23.0147H40.8343V23.8996H37.6487V25.3637H40.4723V26.2567H37.6487V27.761H40.8745V28.6459H36.6592Z" fill="white"/>
<path d="M41.984 28.6459V22.7734H42.9655V28.6459H41.984Z" fill="white"/>
<path d="M46.1844 28.7424C44.9616 28.7424 44.0043 27.8495 44.0043 26.5382V26.5221C44.0043 25.2994 44.8651 24.3099 46.0798 24.3099C47.4313 24.3099 48.1151 25.3718 48.1151 26.5945C48.1151 26.683 48.107 26.7715 48.099 26.8681H44.9777C45.0823 27.5679 45.5649 27.946 46.2005 27.946C46.6831 27.946 47.0049 27.769 47.3508 27.4392L47.922 27.946C47.5117 28.4287 46.9647 28.7424 46.1844 28.7424ZM44.9696 26.2245H47.1497C47.0854 25.6051 46.7153 25.1063 46.0717 25.1063C45.4684 25.1063 45.0581 25.5568 44.9696 26.2245Z" fill="white"/>
<path d="M51.0555 28.7424C49.7925 28.7424 48.8593 27.753 48.8593 26.5463V26.5302C48.8593 25.3235 49.7925 24.3099 51.0716 24.3099C51.868 24.3099 52.3587 24.6075 52.769 25.0419L52.1576 25.6935C51.8599 25.3798 51.5462 25.1626 51.0635 25.1626C50.3556 25.1626 49.8327 25.774 49.8327 26.5141V26.5302C49.8327 27.2864 50.3556 27.8897 51.1037 27.8897C51.5623 27.8897 51.8921 27.6806 52.2058 27.3668L52.7931 27.946C52.3748 28.4207 51.8841 28.7424 51.0555 28.7424Z" fill="white"/>
<path d="M55.1123 28.7183C54.3963 28.7183 53.8895 28.4046 53.8895 27.4714V25.235H53.3505V24.3984H53.8895V23.2319H54.8629V24.3984H56.0052V25.235H54.8629V27.3185C54.8629 27.6966 55.0559 27.8495 55.3858 27.8495C55.5949 27.8495 55.796 27.8012 55.9891 27.7047V28.5011C55.7397 28.6379 55.4903 28.7183 55.1123 28.7183Z" fill="white"/>
<path d="M56.9877 28.6459V24.3984H57.9691V25.3557C58.2346 24.7121 58.7253 24.2858 59.4735 24.3179V25.3476H59.4172C58.5564 25.3476 57.9691 25.9027 57.9691 27.0289V28.6459H56.9877Z" fill="white"/>
<path d="M60.3349 23.7468V22.8216H61.3807V23.7468H60.3349ZM60.3671 28.6459V24.3984H61.3485V28.6459H60.3671Z" fill="white"/>
<path d="M64.5835 28.7424C63.3205 28.7424 62.3874 27.753 62.3874 26.5463V26.5302C62.3874 25.3235 63.3205 24.3099 64.5996 24.3099C65.396 24.3099 65.8867 24.6075 66.297 25.0419L65.6856 25.6935C65.388 25.3798 65.0742 25.1626 64.5916 25.1626C63.8836 25.1626 63.3607 25.774 63.3607 26.5141V26.5302C63.3607 27.2864 63.8836 27.8897 64.6318 27.8897C65.0903 27.8897 65.4201 27.6806 65.7339 27.3668L66.3211 27.946C65.9028 28.4207 65.4121 28.7424 64.5835 28.7424Z" fill="white"/>
<path d="M68.4392 28.7344C67.6428 28.7344 66.9268 28.2839 66.9268 27.4231V27.407C66.9268 26.4819 67.6508 26.0395 68.6886 26.0395C69.1712 26.0395 69.5011 26.1119 69.8309 26.2164V26.1119C69.8309 25.5005 69.4608 25.1867 68.7771 25.1867C68.2944 25.1867 67.9485 25.2913 67.5623 25.4522L67.2969 24.688C67.7715 24.4869 68.23 24.3421 68.9058 24.3421C69.5413 24.3421 70.0079 24.503 70.3136 24.8167C70.6273 25.1304 70.7721 25.5729 70.7721 26.128V28.6459H69.8228V28.115C69.5332 28.4609 69.0908 28.7344 68.4392 28.7344ZM68.7127 28.0265C69.3563 28.0265 69.847 27.6645 69.847 27.1174V26.8278C69.5976 26.7313 69.2678 26.6589 68.8816 26.6589C68.2461 26.6589 67.8841 26.9163 67.8841 27.3668V27.3829C67.8841 27.7932 68.2381 28.0265 68.7127 28.0265Z" fill="white"/>
<path d="M71.9861 28.6459V22.7734H72.9676V28.6459H71.9861Z" fill="white"/>
<path d="M76.7641 28.6459V23.0147H79.2901C79.9417 23.0147 80.4324 23.1836 80.7622 23.5135C81.0116 23.7629 81.1403 24.0766 81.1403 24.4466V24.4627C81.1403 25.1465 80.7542 25.5005 80.3359 25.7177C81.0036 25.951 81.4541 26.313 81.4541 27.0853V27.1013C81.4541 28.1069 80.6255 28.6459 79.3705 28.6459H76.7641ZM80.1509 24.6236V24.6075C80.1509 24.157 79.8049 23.8916 79.1614 23.8916H77.7375V25.3879H79.089C79.7325 25.3879 80.1509 25.1385 80.1509 24.6236ZM80.4646 26.9968V26.9807C80.4646 26.498 80.0865 26.2245 79.3062 26.2245H77.7375V27.769H79.3786C80.0543 27.769 80.4646 27.5116 80.4646 26.9968Z" fill="white"/>
<path d="M84.4762 28.7424C83.1811 28.7424 82.2238 27.753 82.2238 26.5463V26.5302C82.2238 25.3155 83.1891 24.3099 84.4923 24.3099C85.8036 24.3099 86.7529 25.2994 86.7529 26.5141V26.5302C86.7529 27.7288 85.7875 28.7424 84.4762 28.7424ZM84.4923 27.8897C85.2887 27.8897 85.7795 27.2783 85.7795 26.5463V26.5302C85.7795 25.782 85.2405 25.1626 84.4762 25.1626C83.6959 25.1626 83.1972 25.774 83.1972 26.5141V26.5302C83.1972 27.2703 83.7442 27.8897 84.4923 27.8897Z" fill="white"/>
<path d="M88.2095 24.3984L89.1829 25.8223L90.1724 24.3984H91.2101L89.7138 26.4739L91.2745 28.6459H90.2126L89.1668 27.1335L88.129 28.6459H87.0913L88.6439 26.4819L87.1476 24.3984H88.2095Z" fill="white"/>
<path d="M93.7918 28.7424C92.569 28.7424 91.6117 27.8495 91.6117 26.5382V26.5221C91.6117 25.2994 92.4725 24.3099 93.6872 24.3099C95.0387 24.3099 95.7225 25.3718 95.7225 26.5945C95.7225 26.683 95.7144 26.7715 95.7064 26.8681H92.5851C92.6897 27.5679 93.1723 27.946 93.8079 27.946C94.2905 27.946 94.6123 27.769 94.9582 27.4392L95.5294 27.946C95.1191 28.4287 94.5721 28.7424 93.7918 28.7424ZM92.577 26.2245H94.7571C94.6928 25.6051 94.3227 25.1063 93.6791 25.1063C93.0758 25.1063 92.6655 25.5568 92.577 26.2245Z" fill="white"/>
<path d="M98.1561 28.7263C97.5447 28.7263 96.8931 28.5172 96.3541 28.0908L96.7885 27.4312C97.2631 27.7771 97.7378 27.9541 98.1802 27.9541C98.5985 27.9541 98.8399 27.7771 98.8399 27.4955V27.4794C98.8399 27.1577 98.3894 27.037 97.8906 26.8841C97.2712 26.7152 96.5632 26.4497 96.5632 25.6453V25.6292C96.5632 24.8167 97.2309 24.326 98.0756 24.326C98.6146 24.326 99.1858 24.511 99.6363 24.8086L99.2501 25.5005C98.8399 25.2511 98.4054 25.0983 98.0515 25.0983C97.6734 25.0983 97.4562 25.2833 97.4562 25.5166V25.5327C97.4562 25.8384 97.9147 25.9832 98.4135 26.136C99.0249 26.3291 99.7328 26.6106 99.7328 27.3749V27.3909C99.7328 28.2839 99.041 28.7263 98.1561 28.7263Z" fill="white"/>
</svg>
