<svg width="219" height="107" viewBox="0 0 219 107" fill="none" xmlns="http://www.w3.org/2000/svg">
<path d="M204.614 8.87402H201.684V16.434H199.704V8.87402H196.814V7.43402H204.614V8.87402ZM208.314 7.43402L210.774 13.934L213.224 7.43402H215.814V16.434H213.814V13.934L214.034 9.67402L211.444 16.434H210.094L207.514 9.68402L207.714 13.934V16.434H205.744V7.43402H208.314Z" fill="white"/>
<path d="M0 24.434H15.552C20.8 24.434 24.736 25.842 27.36 28.658C29.984 31.474 31.296 35.602 31.296 41.042V47.666C31.296 53.106 29.984 57.234 27.36 60.05C24.736 62.866 20.8 64.274 15.552 64.274H10.56V91.634H0V24.434ZM15.552 54.674C17.28 54.674 18.56 54.194 19.392 53.234C20.288 52.274 20.736 50.642 20.736 48.338V40.37C20.736 38.066 20.288 36.434 19.392 35.474C18.56 34.514 17.28 34.034 15.552 34.034H10.56V54.674H15.552Z" fill="white"/>
<path d="M37.0312 24.434H65.8313V34.034H47.5913V51.794H62.0872V61.394H47.5913V82.034H65.8313V91.634H37.0312V24.434Z" fill="white"/>
<path d="M87.8125 24.434H116.613V34.034H98.3725V51.794H112.868V61.394H98.3725V82.034H116.613V91.634H87.8125V24.434Z" fill="white"/>
<path d="M122.688 24.434H138.335C143.775 24.434 147.743 25.714 150.24 28.274C152.736 30.77 153.984 34.642 153.984 39.89V44.018C153.984 50.994 151.68 55.41 147.072 57.266V57.458C149.632 58.226 151.423 59.794 152.447 62.162C153.535 64.53 154.079 67.698 154.079 71.666V83.474C154.079 85.394 154.143 86.962 154.271 88.178C154.4 89.33 154.72 90.482 155.232 91.634H144.48C144.096 90.546 143.84 89.522 143.712 88.562C143.583 87.602 143.52 85.874 143.52 83.378V71.09C143.52 68.018 143.008 65.874 141.984 64.658C141.023 63.442 139.328 62.834 136.896 62.834H133.247V91.634H122.688V24.434ZM137.087 53.234C139.199 53.234 140.768 52.69 141.792 51.602C142.88 50.514 143.423 48.69 143.423 46.13V40.946C143.423 38.514 142.975 36.754 142.079 35.666C141.247 34.578 139.904 34.034 138.048 34.034H133.247V53.234H137.087Z" fill="white"/>
<path d="M169.566 24.434H183.87L194.814 91.634H184.254L182.334 78.29V78.482H170.334L168.414 91.634H158.622L169.566 24.434ZM181.086 69.362L176.382 36.146H176.19L171.582 69.362H181.086Z" fill="white"/>
<path d="M75.7518 65.7043L75.7503 65.7003C75.5537 65.1767 75.1411 64.8371 74.9447 64.6834C74.6859 64.4809 74.3752 64.2867 74.0532 64.1043C73.404 63.7366 72.5481 63.3273 71.5881 62.8972C70.227 62.2874 68.5635 61.5949 66.8321 60.8741C66.1208 60.578 65.3981 60.2772 64.6802 59.9753C62.1861 58.9266 59.735 57.8599 57.8579 56.8826C56.9161 56.3922 56.1654 55.9481 55.6403 55.5635C55.462 55.4328 55.3245 55.3197 55.2215 55.225C55.2283 55.2105 55.2355 55.1955 55.2429 55.18C55.4334 54.7839 55.7608 54.2242 56.2336 53.5024C57.1729 52.0685 58.5855 50.1466 60.3373 47.8907C63.8345 43.3869 68.6073 37.6492 73.4521 32.0173C78.2954 26.3871 83.1962 20.8792 86.9447 16.8372C87.7819 15.9345 88.5591 15.1076 89.2635 14.3706C89.143 14.6683 89.0176 14.976 88.8874 15.2931C87.366 18.9987 85.2442 23.8812 83.0978 28.7943C82.7801 29.5214 82.4619 30.2492 82.1451 30.9739C80.3252 35.1364 78.5513 39.1939 77.1889 42.4166C76.3899 44.3065 75.7248 45.9274 75.2729 47.122C75.0483 47.7155 74.8664 48.2299 74.7468 48.6302C74.6881 48.8267 74.6336 49.0308 74.5995 49.2202C74.5827 49.3139 74.5645 49.4374 74.56 49.5735C74.5566 49.6757 74.5521 49.9483 74.6709 50.2535L74.6738 50.2608C74.81 50.6051 75.0334 50.8306 75.142 50.9327C75.2739 51.0567 75.4145 51.1604 75.5366 51.2427C75.7822 51.4085 76.0813 51.574 76.3947 51.7337C77.0288 52.0569 77.8787 52.4354 78.843 52.8461C79.7925 53.2504 80.9426 53.7229 82.1632 54.2244C83.3521 54.7128 84.6077 55.2286 85.8098 55.7357C88.3279 56.7978 90.7952 57.896 92.6577 58.9083C93.5932 59.4169 94.3239 59.876 94.8194 60.2699C94.9876 60.4037 95.1122 60.517 95.2013 60.6086C95.1808 60.6524 95.157 60.7013 95.1296 60.7553C94.9205 61.168 94.5759 61.7397 94.0912 62.4665C93.1273 63.912 91.6989 65.8384 89.9399 68.0922C86.4277 72.5928 81.6671 78.3106 76.8453 83.9217C72.0248 89.5312 67.1564 95.0185 63.4329 99.0559C62.6688 99.8844 61.9549 100.65 61.301 101.341C61.3768 101.158 61.4544 100.971 61.5337 100.781C63.0621 97.1198 65.1932 92.2797 67.3472 87.3872L67.3563 87.3668C69.5092 82.4769 71.684 77.5372 73.2813 73.7154C74.0789 71.8072 74.7416 70.1562 75.1874 68.9205C75.4089 68.3066 75.5879 67.7649 75.7026 67.332C75.7592 67.1183 75.8099 66.8952 75.8377 66.6844L75.8382 66.6808C75.8559 66.5467 75.9108 66.1315 75.7518 65.7043ZM55.0946 55.54C55.0948 55.5393 55.095 55.5387 55.0952 55.538C55.0898 55.5704 55.0855 55.5737 55.0946 55.54ZM95.3588 60.7987C95.3587 60.7987 95.3582 60.7979 95.3573 60.7961C95.3583 60.7978 95.3588 60.7987 95.3588 60.7987ZM95.3124 60.336C95.3153 60.3208 95.3177 60.3126 95.3182 60.3124C95.3187 60.3121 95.3172 60.3197 95.3124 60.336Z" fill="white" stroke="white" stroke-width="3"/>
<path d="M0 24.434H15.552C20.8 24.434 24.736 25.842 27.36 28.658C29.984 31.474 31.296 35.602 31.296 41.042V47.666C31.296 53.106 29.984 57.234 27.36 60.05C24.736 62.866 20.8 64.274 15.552 64.274H10.56V91.634H0V24.434ZM15.552 54.674C17.28 54.674 18.56 54.194 19.392 53.234C20.288 52.274 20.736 50.642 20.736 48.338V40.37C20.736 38.066 20.288 36.434 19.392 35.474C18.56 34.514 17.28 34.034 15.552 34.034H10.56V54.674H15.552Z" fill="white"/>
<path d="M37.0312 24.434H65.8313V34.034H47.5913V51.794H62.0872V61.394H47.5913V82.034H65.8313V91.634H37.0312V24.434Z" fill="white"/>
</svg>
